# xmcd
#
# Track frame offsets:
#	150
#	13849
#	23751
#	36852
#	49444
#	62841
#	73787
#	95016
#	108341
#	120765
#	133335
#	145368
#	158857
#	177355
#	188688
#	204560
#
# Disc length: 3008 seconds
#
# Revision: 0
# Processed by: cddbd v1.5.2PL0 Copyright (c) Steve Scherf et al.
# Submitted via: dBpowerAMP V4.0
#
DISCID=ea0bbe10
DTITLE=Various Artist - Maxi Blues Disc 1
DYEAR=1900
DGENRE=Blues
TTITLE0=Call it stormy monday - T. Bone Walker
TTITLE1=Dimples - John Lee Hooker
TTITLE2=Dust my broom - Elmore James
TTITLE3=Bigboss man - Jimmy Reed
TTITLE4=Standing at the crossroad - Elmore James
TTITLE5=Kansas city - Wilbert Harrison
TTITLE6=See see rider - Jimmy Witherspoon
TTITLE7=All your love - Magic Sam
TTITLE8=Crawlin' king snake - John Lee Hooker
TTITLE9=The sky is crying - Elmore James
TTITLE10=Bright Lights, big city - Jimmy Reed
TTITLE11=T-Bone shuffle - T. Bone Walker
TTITLE12=One bourbon, one scotch , one beer (live) - John Lee Hooker
TTITLE13=Rollin' and tumblin' - Elmore James
TTITLE14=I put a spell on you - Screaming Jay Hawkins
TTITLE15=I've got my mojo working - Professor Longhair
EXTD=
EXTT0=
EXTT1=
EXTT2=
EXTT3=
EXTT4=
EXTT5=
EXTT6=
EXTT7=
EXTT8=
EXTT9=
EXTT10=
EXTT11=
EXTT12=
EXTT13=
EXTT14=
EXTT15=
PLAYORDER=
